<?xml version="1.0" encoding="UTF-8"?>
<svg xmlns="http://www.w3.org/2000/svg" xmlns:xlink="http://www.w3.org/1999/xlink" viewBox="0 0 30 30" width="30px" height="30px">
<g id="surface36271157">
<path style=" stroke:none;fill-rule:nonzero;fill:rgb(100%,100%,100%);fill-opacity:1;" d="M 14.0625 1.875 C 7.34375 1.875 1.875 7.34375 1.875 14.0625 C 1.875 20.78125 7.34375 26.25 14.0625 26.25 C 20.78125 26.25 26.25 20.78125 26.25 14.0625 C 26.25 7.34375 20.78125 1.875 14.0625 1.875 Z M 14.0625 3.75 C 19.769531 3.75 24.375 8.355469 24.375 14.0625 C 24.375 19.769531 19.769531 24.375 14.0625 24.375 C 8.355469 24.375 3.75 19.769531 3.75 14.0625 C 3.75 8.355469 8.355469 3.75 14.0625 3.75 Z M 17.082031 8.910156 C 15.503906 8.910156 14.214844 10.191406 14.214844 11.769531 C 14.214844 12.0625 14.320312 12.261719 14.320312 12.457031 C 11.949219 12.359375 9.980469 11.054688 8.597656 9.375 C 8.300781 9.769531 8.203125 10.261719 8.203125 10.753906 C 8.203125 11.742188 8.585938 12.828125 9.378906 13.519531 C 8.855469 13.449219 8.597656 13.320312 8.203125 13.125 C 8.203125 14.507812 9.082031 15.421875 10.367188 15.71875 C 10.367188 15.71875 9.871094 15.816406 9.578125 15.816406 C 9.351562 15.816406 9.082031 15.71875 9.082031 15.71875 C 9.476562 16.804688 10.464844 17.6875 11.746094 17.6875 C 10.761719 18.378906 9.476562 18.75 8.191406 18.75 L 7.5 18.75 C 8.203125 19.6875 9.84375 20.15625 11.84375 20.160156 C 17.078125 20.160156 19.945312 15.816406 19.945312 12.066406 L 19.945312 11.671875 C 20.4375 11.277344 20.929688 10.78125 21.328125 10.191406 C 20.734375 10.488281 20.242188 10.582031 19.652344 10.683594 C 20.242188 10.289062 20.734375 9.792969 20.933594 9.105469 C 20.441406 9.398438 19.847656 9.695312 19.15625 9.796875 C 18.660156 9.207031 17.875 8.910156 17.082031 8.910156 Z M 17.082031 8.910156 "/>
</g>
</svg>
