<?xml version="1.0" encoding="UTF-8"?>
<svg xmlns="http://www.w3.org/2000/svg" xmlns:xlink="http://www.w3.org/1999/xlink" viewBox="0 0 30 30" width="30px" height="30px">
<g id="surface36243145">
<path style=" stroke:none;fill-rule:nonzero;fill:rgb(100%,100%,100%);fill-opacity:1;" d="M 15 2.5 C 8.097656 2.5 2.5 8.097656 2.5 15 C 2.5 21.902344 8.097656 27.5 15 27.5 C 21.902344 27.5 27.5 21.902344 27.5 15 C 27.5 8.097656 21.902344 2.5 15 2.5 Z M 15 5 C 20.523438 5 25 9.476562 25 15 C 25 19.917969 21.445312 23.996094 16.765625 24.835938 L 16.765625 18.792969 L 19.722656 18.792969 L 20.164062 15.386719 L 16.785156 15.386719 L 16.785156 13.21875 C 16.785156 12.234375 17.0625 11.566406 18.472656 11.566406 L 20.257812 11.566406 L 20.257812 8.527344 C 19.390625 8.4375 18.519531 8.394531 17.644531 8.398438 C 15.050781 8.398438 13.277344 9.980469 13.277344 12.886719 L 13.277344 15.394531 L 10.347656 15.394531 L 10.347656 18.800781 L 13.277344 18.800781 L 13.277344 24.839844 C 8.578125 24.023438 5 19.933594 5 15 C 5 9.476562 9.476562 5 15 5 Z M 15 5 "/>
</g>
</svg>
